<svg xmlns="http://www.w3.org/2000/svg" version="1.1" xmlns:xlink="http://www.w3.org/1999/xlink" xmlns:svgjs="http://svgjs.dev/svgjs" width="2000" height="2215" viewBox="0 0 2000 2215"><g transform="matrix(1,0,0,1,0.811380533667375,0.8967611336031496)"><svg viewBox="0 0 223 247" data-background-color="#ffffff" preserveAspectRatio="xMidYMid meet" height="2215" width="2000" xmlns="http://www.w3.org/2000/svg" xmlns:xlink="http://www.w3.org/1999/xlink"><g id="tight-bounds" transform="matrix(1,0,0,1,-0.09046892950391339,-0.09999999999999432)"><svg viewBox="0 0 223.18093785900783 247.2" height="247.2" width="223.18093785900783"><g><svg viewBox="0 0 223.18093785900783 247.2" height="247.2" width="223.18093785900783"><g><svg viewBox="0 0 223.18093785900783 247.2" height="247.2" width="223.18093785900783"><g id="textblocktransform"><svg viewBox="0 0 223.18093785900783 247.2" height="247.2" width="223.18093785900783" id="textblock"><g><svg viewBox="0 0 223.18093785900783 247.2" height="247.2" width="223.18093785900783"><rect width="223.18093785900783" height="247.2" x="0" y="0" opacity="1" fill="#ff851b" data-fill-palette-color="tertiary"></rect><g transform="matrix(1,0,0,1,23.607599999999998,23.607599999999998)"><svg width="175.96573785900785" viewBox="-0.39 -36.72 32.910000000000004 37.4" height="199.9848" data-palette-color="#ffffff"><path d="M-0.39-29.25L-0.39-29.25Q-0.39-29.69-0.34-30.55-0.29-31.42-0.29-31.74L-0.29-31.74Q-0.29-31.86-0.34-32.62-0.39-33.37-0.39-33.94L-0.39-33.94Q-0.39-36.52 0.1-36.52L0.1-36.52Q0.29-36.52 0.44-36.47L0.44-36.47Q5.54-36.47 15.56-36.6 25.59-36.72 30.57-36.72L30.57-36.72Q31.81-36.72 32.14-36.5 32.47-36.28 32.47-35.64L32.47-35.64 32.47-34.96Q32.47-33.69 32.5-31.21 32.52-28.74 32.52-27.44L32.52-27.44Q32.52-26.17 31.84-26.17L31.84-26.17Q30.47-26.17 27.76-26.22 25.05-26.27 23.68-26.27L23.68-26.27 23.68-0.1Q23.51 0.63 22.85 0.68L22.85 0.68Q22 0.68 20.36 0.66 18.73 0.63 17.87 0.63L17.87 0.63Q17.82 0.63 17.77 0.68L17.77 0.68Q16.7 0.68 14.76 0.66 12.82 0.63 11.87 0.63L11.87 0.63 10.4 0.63Q9.91 0.68 8.98 0.68L8.98 0.68 8.01-0.49Q8.01-4.2 8.25-11.52 8.5-18.85 8.5-22.56L8.5-22.56Q8.5-22.73 8.48-23.12 8.47-23.51 8.47-23.75 8.47-24 8.44-24.37 8.4-24.73 8.31-24.96 8.23-25.2 8.11-25.43 7.98-25.66 7.78-25.77 7.57-25.88 7.28-25.88L7.28-25.88 0.29-25.88Q-0.39-26.07-0.39-29.25Z" opacity="1" transform="matrix(1,0,0,1,0,0)" fill="#ffffff" class="wordmark-text-0" data-fill-palette-color="quaternary" id="text-0"></path></svg></g></svg></g></svg></g></svg></g></svg></g><defs></defs></svg><rect width="223.18093785900783" height="247.2" fill="none" stroke="none" visibility="hidden"></rect></g></svg></g></svg>