<svg version="1.1" id="Layer_1" xmlns="http://www.w3.org/2000/svg" xmlns:xlink="http://www.w3.org/1999/xlink" x="0px" y="0px"
	 width="100%" viewBox="0 0 2000 1500" enable-background="new 0 0 2000 1500" xml:space="preserve">
<path fill="#282634" opacity="1.000000" stroke="none" 
	d="
M1018.000000,1501.000000 
	C680.166748,1501.000000 342.833527,1500.992798 5.500329,1501.093140 
	C1.751859,1501.094238 0.906362,1500.250000 0.907100,1496.500244 
	C1.004954,999.500427 1.004907,502.500580 0.907290,5.500767 
	C0.906554,1.753561 1.748391,0.906597 5.499262,0.907143 
	C669.165710,1.003711 1332.832153,1.003691 1996.498657,0.907523 
	C2000.244385,0.906980 2001.093628,1.746287 2001.092896,5.498670 
	C2000.994873,502.498505 2000.994995,999.498352 2001.092529,1496.498169 
	C2001.093262,1500.242676 2000.255493,1501.094604 1996.501831,1501.093506 
	C1670.501221,1500.992432 1344.500610,1501.000000 1018.000000,1501.000000 
z"/>
<path fill="#FE4057" opacity="1.000000" stroke="none" 
	d="
M1247.597656,913.746338 
	C1257.209961,929.698914 1277.122803,936.328186 1293.370850,928.996460 
	C1296.196655,927.721313 1296.863159,928.916992 1297.688721,930.936462 
	C1300.461670,937.718262 1297.847900,945.847656 1290.893066,951.241089 
	C1282.718384,957.580688 1273.216309,960.353455 1263.022095,960.940369 
	C1252.132202,961.567444 1241.793701,959.386902 1232.201782,954.180237 
	C1229.698975,952.821655 1227.825317,952.945740 1225.313721,954.253784 
	C1207.489624,963.537048 1189.493042,963.324646 1171.637573,954.394348 
	C1168.729248,952.939758 1166.681030,953.034424 1163.859009,954.491089 
	C1144.652344,964.405579 1125.652344,963.471924 1107.345947,952.259033 
	C1099.349121,947.360779 1096.511353,939.634094 1098.654785,932.247986 
	C1099.589722,929.026184 1100.417969,927.594116 1104.397583,929.509399 
	C1118.876343,936.477661 1141.634277,928.256165 1149.066528,913.888184 
	C1150.044922,911.996704 1150.167358,910.101501 1150.166992,908.099365 
	C1150.161621,867.105530 1149.976807,826.110413 1150.276611,785.118774 
	C1150.361450,773.519531 1145.997681,764.963379 1136.720337,758.382141 
	C1131.144409,754.426514 1125.205811,751.103943 1118.798218,747.508362 
	C1123.275146,745.112488 1127.375488,743.024902 1131.374512,740.758240 
	C1143.901489,733.658020 1150.240845,723.028442 1150.199097,708.461914 
	C1150.089600,670.301331 1150.070435,632.139648 1150.288086,593.980042 
	C1150.314087,589.429260 1148.602173,587.875916 1144.609985,587.112610 
	C1117.927612,582.011047 1096.854980,591.823853 1080.015747,611.891479 
	C1064.556885,630.314087 1058.962646,652.421387 1058.161621,675.919312 
	C1057.677246,690.128479 1058.225220,704.290405 1065.450562,717.199768 
	C1066.960938,719.898254 1064.879639,721.314941 1063.266602,722.560181 
	C1058.422852,726.299194 1052.779785,725.754211 1047.454834,724.366150 
	C1031.734741,720.268494 1023.714294,708.471985 1019.174866,694.042664 
	C1015.451660,682.207825 1016.903076,670.267151 1021.192322,658.763977 
	C1022.286377,655.830017 1022.276001,653.891907 1020.463379,651.129456 
	C1011.112915,636.879272 1010.674255,622.137268 1019.288208,607.362732 
	C1020.492065,605.297974 1020.579895,604.148987 1019.126526,602.203003 
	C1010.625977,590.821411 1008.577332,577.878540 1011.187134,564.252258 
	C1014.344177,547.768372 1034.633179,536.106262 1050.655029,541.101196 
	C1054.151733,542.191345 1056.354736,543.827881 1054.661255,547.920959 
	C1054.286011,548.827698 1054.122314,549.848022 1054.009033,550.833008 
	C1052.875732,560.677734 1057.125244,564.748291 1066.794800,562.559631 
	C1077.664185,560.099426 1088.366699,556.881653 1099.264160,554.570618 
	C1116.456909,550.924683 1133.783081,548.761292 1151.255737,552.962585 
	C1156.425659,554.205750 1178.138794,553.896606 1183.144043,552.653870 
	C1197.774292,549.021362 1211.885132,550.319153 1225.310303,557.423645 
	C1227.207886,558.427795 1228.807983,559.757568 1231.240845,558.302795 
	C1246.138306,549.394409 1262.462891,550.236206 1278.856445,551.477539 
	C1294.589355,552.668762 1309.526245,557.476868 1324.682007,561.310486 
	C1327.099243,561.921936 1329.524170,562.615112 1331.988647,562.907043 
	C1339.777832,563.829895 1343.127197,560.666931 1342.946899,552.767151 
	C1342.927979,551.936890 1342.867432,551.099548 1342.731567,550.281250 
	C1341.459473,542.617432 1343.134277,540.532532 1350.996216,540.034241 
	C1369.383179,538.868896 1384.423706,551.779907 1386.180908,570.146118 
	C1387.304443,581.889648 1384.983154,592.701965 1377.644409,602.131409 
	C1376.188721,604.001953 1376.180176,605.220215 1377.417358,607.318970 
	C1386.135620,622.109619 1385.518066,636.810425 1376.078247,651.022217 
	C1374.286987,653.719238 1373.983887,655.619690 1375.357666,658.625244 
	C1383.831909,677.163086 1378.855591,702.329956 1364.192871,716.393494 
	C1357.582031,722.734253 1349.714844,725.665955 1340.551514,725.106445 
	C1337.252319,724.904968 1334.396973,723.774841 1332.116821,721.330933 
	C1330.864380,719.988586 1330.454468,718.644470 1331.481567,716.852173 
	C1338.213013,705.105530 1338.994385,692.143616 1338.772705,679.077637 
	C1338.419434,658.247253 1334.143311,638.374390 1322.874390,620.525696 
	C1311.761963,602.924744 1296.953369,590.157776 1275.752197,586.547363 
	C1267.316162,585.110718 1258.843994,585.436890 1250.457397,587.480835 
	C1247.538086,588.192322 1246.445190,589.626160 1246.452515,592.683960 
	C1246.546021,632.011047 1246.623657,671.338745 1246.481323,710.665405 
	C1246.440308,722.009155 1251.178467,730.417297 1260.203857,736.908813 
	C1265.630493,740.811951 1271.436279,744.020630 1277.951172,747.406372 
	C1273.171265,750.101318 1268.853760,752.630737 1264.449951,755.000305 
	C1252.059692,761.667419 1246.447144,772.113831 1246.476685,786.050110 
	C1246.562866,826.543823 1246.504517,867.037781 1246.503540,907.531677 
	C1246.503540,909.529785 1246.408081,911.543396 1247.597656,913.746338 
z"/>
<path fill="#FE4057" opacity="1.000000" stroke="none" 
	d="
M875.740356,585.922485 
	C868.759338,585.634399 862.294434,585.820740 855.916016,587.429565 
	C853.175598,588.120850 851.753540,589.216919 851.764038,592.464233 
	C851.893738,632.459900 851.883606,672.455994 851.877197,712.452026 
	C851.875793,721.182678 855.326782,728.172974 861.879089,733.886414 
	C868.203003,739.400574 875.427185,743.459717 883.246765,747.383667 
	C877.870850,750.445374 872.944702,753.201782 868.065796,756.039673 
	C856.970581,762.493347 851.816406,772.259094 851.827393,784.997620 
	C851.862549,825.993713 851.891846,866.989929 851.760498,907.985596 
	C851.745667,912.594482 853.905029,915.883789 856.473206,919.177002 
	C864.286560,929.195984 885.749390,936.385132 898.800354,929.012695 
	C901.094360,927.716858 901.967712,928.514160 902.887939,930.538879 
	C905.938232,937.250122 903.364014,945.729370 896.179688,951.287659 
	C888.000061,957.616150 878.471619,960.346680 868.285767,960.944946 
	C857.392944,961.584839 847.059814,959.348267 837.457520,954.182190 
	C834.945007,952.830444 833.082703,952.948242 830.566956,954.261292 
	C812.927002,963.467957 795.062805,963.362976 777.350220,954.579590 
	C774.068848,952.952393 771.792297,953.188110 768.678467,954.754761 
	C749.379944,964.464294 730.395264,963.388916 712.210327,951.918152 
	C704.714661,947.190247 702.104492,940.022217 703.935730,932.620850 
	C704.754028,929.313416 705.472473,927.441345 709.844238,929.570984 
	C724.294922,936.610413 747.812866,927.843811 754.716431,913.365356 
	C755.700256,911.302002 755.667908,909.178711 755.667908,907.016724 
	C755.667969,866.853882 755.442078,826.689087 755.798096,786.529419 
	C755.910950,773.800720 751.374695,764.257141 740.745972,757.507874 
	C735.418152,754.124634 730.029785,750.836792 724.421265,747.352051 
	C728.461182,745.194885 732.413208,743.132568 736.320801,740.989441 
	C749.362427,733.836304 755.697021,722.784668 755.680115,707.929016 
	C755.636963,669.932678 755.570679,631.935730 755.792236,593.940613 
	C755.819519,589.272095 753.825867,587.905457 749.948486,587.121887 
	C727.328613,582.550964 708.071777,589.301819 691.777527,604.902588 
	C674.340088,621.597839 666.467102,642.852661 664.047974,666.412598 
	C662.852173,678.058228 662.875549,689.702515 665.011475,701.269897 
	C665.922974,706.206116 667.104126,711.141663 669.795166,715.382080 
	C672.340759,719.393311 670.526611,721.614563 667.319946,723.436462 
	C662.659424,726.084412 657.557251,725.672668 652.718079,724.375549 
	C636.607422,720.057190 628.551270,707.881287 624.197815,693.049316 
	C620.878479,681.740295 622.117798,670.193970 626.358093,659.210571 
	C627.636108,655.900146 627.507935,653.750000 625.545532,650.694946 
	C616.569946,636.722168 616.124451,622.219238 624.416565,607.764893 
	C625.838562,605.286133 625.772217,603.983459 624.131531,601.738708 
	C615.400513,589.792480 613.488708,576.304688 617.039673,562.292480 
	C620.952209,546.853821 640.166626,536.614136 655.518005,540.966858 
	C659.502869,542.096741 661.714905,543.938293 659.864441,548.355347 
	C659.673523,548.810791 659.594055,549.317688 659.498657,549.807739 
	C657.528198,559.928772 662.140137,564.787659 672.075928,562.567383 
	C681.328064,560.499817 690.414307,557.692871 699.662109,555.602783 
	C716.786133,551.732544 734.038574,549.045776 751.658447,551.926270 
	C758.112976,552.981506 764.305237,554.912964 770.078064,557.980408 
	C772.240845,559.129578 773.891968,559.039062 776.065186,557.866455 
	C794.320984,548.016113 812.688538,548.318542 831.043762,557.661255 
	C832.820374,558.565552 834.306519,559.663818 836.532898,558.331482 
	C851.424316,549.419800 867.747620,550.232544 884.144470,551.466675 
	C899.880737,552.651062 914.821289,557.443665 929.964783,561.330811 
	C933.028625,562.117188 936.065186,562.981445 939.268616,563.044922 
	C944.998840,563.158386 947.529175,560.977966 947.989929,555.229065 
	C948.135254,553.415405 948.118835,551.544189 947.845947,549.749512 
	C946.787170,542.788269 947.973389,541.101685 954.892883,540.130920 
	C971.422607,537.811707 988.017944,549.805542 991.010193,566.240845 
	C993.395996,579.345215 991.123596,591.448853 982.980530,602.162170 
	C981.523560,604.078857 981.610718,605.297058 982.805054,607.343872 
	C991.557678,622.343750 990.918823,637.151306 981.159729,651.455505 
	C979.569397,653.786499 979.409241,655.434265 980.497070,658.109680 
	C988.790833,678.507935 985.421082,697.307861 971.627502,714.158875 
	C965.265320,721.931152 956.653809,725.590332 946.459045,725.147034 
	C943.902283,725.035767 941.490479,724.526367 939.392029,723.025024 
	C936.742859,721.129700 935.393250,719.339355 937.402039,715.632629 
	C944.251526,702.993652 944.409363,689.079651 943.878601,675.199890 
	C943.080688,654.335754 938.047668,634.632080 926.060852,617.254150 
	C913.991882,599.757019 898.152588,587.898315 875.740356,585.922485 
z"/>
<path fill="#FC4057" opacity="1.000000" stroke="none" 
	d="
M1432.079834,1045.175781 
	C1439.017090,1043.912720 1442.469360,1046.807251 1445.730103,1052.520142 
	C1476.353516,1106.170654 1507.336060,1159.616455 1538.210083,1213.123901 
	C1538.949585,1214.405273 1539.635620,1215.717285 1540.644043,1217.557861 
	C1180.774292,1217.557861 821.376221,1217.557861 461.909821,1217.557861 
	C461.767303,1215.518677 463.192902,1214.163330 464.071716,1212.639160 
	C495.178345,1158.690063 526.372375,1104.791016 557.360229,1050.773804 
	C559.726562,1046.648926 562.154236,1044.391357 567.031921,1045.127930 
	C570.432861,1045.641602 575.738281,1043.674561 576.905579,1045.908203 
	C578.384399,1048.737793 574.379700,1052.218628 572.602356,1055.306152 
	C545.438904,1102.495850 518.190247,1149.636353 490.968292,1196.792358 
	C490.149231,1198.211304 489.405701,1199.673706 488.326294,1201.672607 
	C830.244507,1201.672607 1171.650879,1201.672607 1513.130737,1201.672607 
	C1513.242676,1199.568359 1511.838745,1198.212769 1510.958740,1196.686523 
	C1483.180054,1148.506714 1455.368896,1100.345581 1427.562988,1052.181396 
	C1423.521240,1045.180420 1423.521851,1045.180054 1432.079834,1045.175781 
z"/>
<path fill="#FB3F56" opacity="1.000000" stroke="none" 
	d="
M1099.859131,455.155884 
	C1095.082764,455.598663 1090.426270,455.575867 1085.788818,455.862305 
	C1082.630493,456.057404 1082.018921,453.631439 1080.905029,451.704224 
	C1055.582886,407.893280 1030.287964,364.066650 1004.947632,320.266205 
	C1003.816162,318.310425 1003.176575,314.994629 1001.060730,314.941437 
	C998.870789,314.886414 998.240723,318.218262 997.119995,320.154877 
	C972.108643,363.376770 947.068237,406.582428 922.292542,449.939240 
	C919.717407,454.445679 916.984863,456.145050 911.839111,455.951477 
	C900.990417,455.543335 900.973083,455.825226 906.282166,446.630402 
	C936.995300,393.438721 967.732727,340.261017 998.378357,287.030457 
	C1000.324219,283.650574 1001.192261,282.749084 1003.552002,286.853394 
	C1035.245117,341.977875 1067.077515,397.022247 1098.858276,452.096405 
	C1099.345581,452.940857 1099.615601,453.910706 1099.859131,455.155884 
z"/>
<path fill="#2C2635" opacity="1.000000" stroke="none" 
	d="
M1175.335083,860.999756 
	C1175.065552,833.026855 1175.553223,805.541199 1174.001465,778.090271 
	C1173.748047,773.605652 1173.290283,769.132019 1172.892944,764.656372 
	C1172.416504,759.291138 1169.828491,755.204285 1165.176758,752.533752 
	C1162.158203,750.800781 1159.010620,749.292786 1155.869751,747.657349 
	C1155.935913,747.482971 1155.971191,747.090759 1156.119019,747.042419 
	C1170.010742,742.494385 1173.497070,731.770264 1173.940186,718.536316 
	C1174.647827,697.395325 1175.128296,676.258240 1175.182983,655.108093 
	C1175.201904,647.780701 1175.252075,640.453369 1175.323975,633.126343 
	C1175.333374,632.169922 1175.016724,630.974426 1175.983765,630.358643 
	C1177.294312,629.524048 1178.104004,630.797302 1178.971802,631.437561 
	C1185.301270,636.106689 1188.020386,642.693604 1188.980957,650.251770 
	C1190.136597,659.345825 1190.848755,668.470215 1190.917236,677.634277 
	C1191.261963,723.762756 1191.618164,769.893372 1190.937134,816.019653 
	C1190.686523,832.981995 1190.914551,850.014038 1187.995117,866.823364 
	C1186.842651,873.458496 1184.723633,879.770874 1179.228760,884.288208 
	C1178.357544,885.004395 1177.364258,886.103516 1176.201294,885.623596 
	C1174.908081,885.089966 1175.365234,883.589111 1175.359131,882.483215 
	C1175.319946,875.488953 1175.336792,868.494263 1175.335083,860.999756 
z"/>
<path fill="#2D2735" opacity="1.000000" stroke="none" 
	d="
M796.624512,784.999512 
	C796.248230,808.144592 796.298950,830.799438 795.021057,853.423645 
	C794.606323,860.765747 793.693359,868.018799 790.977783,874.911133 
	C789.118225,879.630859 786.535522,883.804138 781.524475,885.963867 
	C780.185242,883.995178 780.760071,881.948059 780.751892,880.030151 
	C780.600647,844.558899 780.913391,809.080627 779.005798,773.638550 
	C778.880676,771.314331 778.435974,768.999329 778.422668,766.678345 
	C778.373596,758.145752 773.363342,753.339661 766.207458,750.081665 
	C764.548950,749.326538 762.876831,748.600952 761.184021,747.849854 
	C761.291748,747.503357 761.309448,747.082825 761.453735,747.033691 
	C774.643677,742.538391 778.691956,732.717224 779.166321,719.530334 
	C780.184448,691.227112 780.320618,662.921143 780.728760,634.614197 
	C780.750671,633.090637 779.855896,630.906067 781.711060,630.195068 
	C783.110962,629.658569 784.253601,631.467957 785.408752,632.365601 
	C793.202698,638.422546 794.272461,647.283630 794.964722,656.136230 
	C797.109619,683.564392 796.415833,711.059387 796.606567,738.531555 
	C796.712952,753.853516 796.626892,769.176819 796.624512,784.999512 
z"/>
</svg>