<svg xmlns="http://www.w3.org/2000/svg" version="1.1" xmlns:xlink="http://www.w3.org/1999/xlink" xmlns:svgjs="http://svgjs.dev/svgjs" width="2000" height="1247" viewBox="0 0 2000 1247"><g transform="matrix(1,0,0,1,-1.2121212121212466,0.504858299595071)"><svg viewBox="0 0 396 247" data-background-color="#282634" preserveAspectRatio="xMidYMid meet" height="1247" width="2000" xmlns="http://www.w3.org/2000/svg" xmlns:xlink="http://www.w3.org/1999/xlink"><g id="tight-bounds" transform="matrix(1,0,0,1,0.2400000000000091,-0.09999999999999432)"><svg viewBox="0 0 395.52 247.2" height="247.2" width="395.52"><g><svg></svg></g><g><svg viewBox="0 0 395.52 247.2" height="247.2" width="395.52"><g><path d="M55.039 247.2l26.403-45.732 4.688 0-23.931 41.45h271.122l-23.931-41.45 4.688 0 26.403 45.732zM197.76 0l26.403 45.732-4.687 0-21.716-37.613-21.716 37.613-4.687 0z" fill="#ff4057" fill-rule="nonzero" stroke="none" stroke-width="1" stroke-linecap="butt" stroke-linejoin="miter" stroke-miterlimit="10" stroke-dasharray="" stroke-dashoffset="0" font-family="none" font-weight="none" font-size="none" text-anchor="none" style="mix-blend-mode: normal" data-fill-palette-color="tertiary"></path></g><g transform="matrix(1,0,0,1,95.91083798882681,67.97999999999999)"><svg viewBox="0 0 203.69832402234636 111.24" height="111.24" width="203.69832402234636"><g><svg viewBox="0 0 203.69832402234636 111.24" height="111.24" width="203.69832402234636"><g><svg viewBox="0 0 203.69832402234636 111.24" height="111.24" width="203.69832402234636"><g><svg viewBox="0 0 203.69832402234636 111.24" height="111.24" width="203.69832402234636"><g id="textblocktransform"><svg viewBox="0 0 203.69832402234636 111.24" height="111.24" width="203.69832402234636" id="textblock"><g><svg viewBox="0 0 203.69832402234636 111.24" height="111.24" width="203.69832402234636"><g transform="matrix(1,0,0,1,0,0)"><svg width="203.69832402234636" viewBox="0.85 -38.84 72.02000000000001 39.330000000000005" height="111.24" data-palette-color="#ff4057"><path d="M21.26-0.32L21.26-0.32Q20 0.49 18.44 0.49 16.89 0.49 15.58-0.32L15.58-0.32Q14.23 0.49 13.11 0.49 11.99 0.49 11.3 0.31 10.62 0.12 10.11-0.2L10.11-0.2Q9.06-0.83 9.06-1.78L9.06-1.78Q9.06-2.27 9.33-2.64L9.33-2.64Q9.86-2.22 10.75-2.22 11.65-2.22 12.56-2.69 13.48-3.15 13.94-4.13L13.94-4.13 13.94-16.02Q13.94-17.14 13.48-17.68L13.48-17.68Q12.74-18.58 10.96-19.46L10.96-19.46Q12.62-20.21 13.11-20.8L13.11-20.8Q13.94-21.75 13.94-22.95L13.94-22.95 13.94-34.28Q13.13-34.57 12.02-34.57 10.91-34.57 9.69-33.98 8.47-33.4 7.5-32.28L7.5-32.28Q5.32-29.74 5.32-25.63L5.32-25.63Q5.32-23.27 6.1-22.14L6.1-22.14Q5.81-21.53 5-21.53 4.2-21.53 3.56-21.9 2.93-22.27 2.47-22.9L2.47-22.9Q1.51-24.17 1.51-25.63 1.51-27.1 2.05-28.13L2.05-28.13Q1.15-29.2 1.15-30.55 1.15-31.91 1.88-32.79L1.88-32.79Q0.85-33.89 0.85-35.74L0.85-35.74Q0.85-37.89 2.83-38.62L2.83-38.62Q3.42-38.84 3.86-38.84L3.86-38.84Q4.69-38.84 5.1-38.48L5.1-38.48Q4.93-37.89 4.93-37.65L4.93-37.65Q4.93-36.67 5.62-36.67L5.62-36.67Q5.98-36.67 6.37-36.77L6.37-36.77 7.47-37.08Q10.33-37.84 12.23-37.84 14.14-37.84 15.58-37.01L15.58-37.01Q16.82-37.84 18.41-37.84 20-37.84 21.29-37.01L21.29-37.01Q22.68-37.84 24.17-37.84L24.17-37.84Q26.54-37.84 28.32-37.35L28.32-37.35 30.49-36.77Q30.88-36.67 31.25-36.67L31.25-36.67Q31.93-36.67 31.93-37.65L31.93-37.65Q31.93-37.89 31.76-38.48L31.76-38.48Q32.18-38.84 32.81-38.84 33.45-38.84 34.03-38.62 34.62-38.4 35.06-37.99L35.06-37.99Q36.01-37.13 36.01-35.53 36.01-33.94 34.99-32.79L34.99-32.79Q35.72-31.91 35.72-30.57 35.72-29.22 34.79-28.13L34.79-28.13Q35.35-27.12 35.35-26.12 35.35-25.12 35.11-24.32 34.86-23.51 34.4-22.9L34.4-22.9Q33.4-21.53 31.88-21.53L31.88-21.53Q31.05-21.53 30.76-22.14L30.76-22.14Q31.54-23.27 31.54-25.52 31.54-27.78 30.94-29.46 30.35-31.13 29.37-32.28L29.37-32.28Q27.39-34.57 24.71-34.57L24.71-34.57Q23.68-34.57 22.92-34.28L22.92-34.28 22.92-22.95Q22.92-21.75 23.44-21.17L23.44-21.17Q24.24-20.21 25.9-19.46L25.9-19.46Q24.12-18.58 23.63-18.02L23.63-18.02Q22.92-17.14 22.92-16.02L22.92-16.02 22.92-4.13Q23.36-3.15 24.28-2.69 25.2-2.22 26.1-2.22 27-2.22 27.54-2.64L27.54-2.64Q27.81-2.27 27.81-1.79 27.81-1.32 27.53-0.9 27.25-0.49 26.76-0.2L26.76-0.2Q25.63 0.49 24.13 0.49 22.63 0.49 21.26-0.32ZM16.28-9.64L16.28-6.47Q17.5-6.93 17.63-9.67L17.63-9.67Q17.77-12.4 17.77-17.24 17.77-22.07 17.76-23.67 17.75-25.27 17.72-26.25L17.72-26.25Q17.65-29.13 17.18-29.72 16.7-30.32 16.28-30.52L16.28-30.52Q16.28-22.02 15.99-20.85L15.99-20.85Q15.65-19.87 14.33-19.46L14.33-19.46Q15.8-18.95 15.99-18.21L15.99-18.21Q16.28-17.04 16.28-9.64L16.28-9.64ZM58.13-0.32L58.13-0.32Q56.86 0.49 55.31 0.49 53.76 0.49 52.44-0.32L52.44-0.32Q51.1 0.49 49.97 0.49 48.85 0.49 48.17 0.31 47.48 0.12 46.97-0.2L46.97-0.2Q45.92-0.83 45.92-1.78L45.92-1.78Q45.92-2.27 46.19-2.64L46.19-2.64Q46.73-2.22 47.62-2.22 48.51-2.22 49.42-2.69 50.34-3.15 50.8-4.13L50.8-4.13 50.8-16.02Q50.8-17.14 50.34-17.68L50.34-17.68Q49.61-18.58 47.82-19.46L47.82-19.46Q49.48-20.21 49.97-20.8L49.97-20.8Q50.8-21.75 50.8-22.95L50.8-22.95 50.8-34.28Q50-34.57 48.89-34.57 47.78-34.57 46.56-33.98 45.33-33.4 44.36-32.28L44.36-32.28Q42.19-29.74 42.19-25.63L42.19-25.63Q42.19-23.27 42.97-22.14L42.97-22.14Q42.67-21.53 41.87-21.53 41.06-21.53 40.43-21.9 39.79-22.27 39.33-22.9L39.33-22.9Q38.38-24.17 38.38-25.63 38.38-27.1 38.91-28.13L38.91-28.13Q38.01-29.2 38.01-30.55 38.01-31.91 38.74-32.79L38.74-32.79Q37.72-33.89 37.72-35.74L37.72-35.74Q37.72-37.89 39.69-38.62L39.69-38.62Q40.28-38.84 40.72-38.84L40.72-38.84Q41.55-38.84 41.97-38.48L41.97-38.48Q41.79-37.89 41.79-37.65L41.79-37.65Q41.79-36.67 42.48-36.67L42.48-36.67Q42.84-36.67 43.23-36.77L43.23-36.77 44.33-37.08Q47.19-37.84 49.09-37.84 51-37.84 52.44-37.01L52.44-37.01Q53.68-37.84 55.27-37.84 56.86-37.84 58.15-37.01L58.15-37.01Q59.54-37.84 61.03-37.84L61.03-37.84Q63.4-37.84 65.18-37.35L65.18-37.35 67.36-36.77Q67.75-36.67 68.11-36.67L68.11-36.67Q68.8-36.67 68.8-37.65L68.8-37.65Q68.8-37.89 68.63-38.48L68.63-38.48Q69.04-38.84 69.68-38.84 70.31-38.84 70.9-38.62 71.48-38.4 71.92-37.99L71.92-37.99Q72.87-37.13 72.87-35.53 72.87-33.94 71.85-32.79L71.85-32.79Q72.58-31.91 72.58-30.57 72.58-29.22 71.65-28.13L71.65-28.13Q72.21-27.12 72.21-26.12 72.21-25.12 71.97-24.32 71.73-23.51 71.26-22.9L71.26-22.9Q70.26-21.53 68.75-21.53L68.75-21.53Q67.92-21.53 67.62-22.14L67.62-22.14Q68.41-23.27 68.41-25.52 68.41-27.78 67.81-29.46 67.21-31.13 66.23-32.28L66.23-32.28Q64.26-34.57 61.57-34.57L61.57-34.57Q60.54-34.57 59.79-34.28L59.79-34.28 59.79-22.95Q59.79-21.75 60.3-21.17L60.3-21.17Q61.11-20.21 62.77-19.46L62.77-19.46Q60.98-18.58 60.5-18.02L60.5-18.02Q59.79-17.14 59.79-16.02L59.79-16.02 59.79-4.13Q60.23-3.15 61.14-2.69 62.06-2.22 62.96-2.22 63.86-2.22 64.4-2.64L64.4-2.64Q64.67-2.27 64.67-1.79 64.67-1.32 64.39-0.9 64.11-0.49 63.62-0.2L63.62-0.2Q62.5 0.49 61 0.49 59.49 0.49 58.13-0.32ZM53.15-9.64L53.15-6.47Q54.37-6.93 54.49-9.67L54.49-9.67Q54.64-12.4 54.64-17.24 54.64-22.07 54.62-23.67 54.61-25.27 54.59-26.25L54.59-26.25Q54.51-29.13 54.04-29.72 53.56-30.32 53.15-30.52L53.15-30.52Q53.15-22.02 52.85-20.85L52.85-20.85Q52.51-19.87 51.19-19.46L51.19-19.46Q52.66-18.95 52.85-18.21L52.85-18.21Q53.15-17.04 53.15-9.64L53.15-9.64Z" opacity="1" transform="matrix(1,0,0,1,0,0)" fill="#ff4057" class="undefined-text-0" data-fill-palette-color="primary" id="text-0"></path></svg></g></svg></g></svg></g></svg></g><g></g></svg></g></svg></g></svg></g></svg></g><defs></defs></svg><rect width="395.52" height="247.2" fill="none" stroke="none" visibility="hidden"></rect></g></svg></g></svg>